<svg width="280" height="42" viewBox="0 0 280 42" fill="none" xmlns="http://www.w3.org/2000/svg">
<g clip-path="url(#clip0_1874_2670)">
<path fill-rule="evenodd" clip-rule="evenodd" d="M10.8892 26.5172C10.7546 26.383 10.4689 26.0806 10.032 25.6101C9.59513 25.1392 9.3094 24.8372 9.17523 24.7027C8.83924 24.7023 8.67102 25.005 8.67102 25.6101C8.80558 25.6097 9.17523 25.7613 9.77995 26.064C10.3851 26.3664 10.7547 26.5176 10.8893 26.5172H10.8892ZM80.5599 23.7952V23.4925C80.5599 22.5518 80.1566 22.0812 79.3501 22.0812C78.9468 22.0809 78.7453 22.1821 78.7453 22.384C78.7453 22.6523 78.9804 22.955 79.451 23.2914C79.9215 23.6267 80.2912 23.7956 80.5599 23.7952ZM113.127 23.3919H112.824C112.488 23.3919 111.984 23.6108 111.312 24.0473C110.64 24.4839 110.304 24.8036 110.304 25.005L110.606 25.1056C110.875 25.1732 111.111 25.2069 111.312 25.2069C112.455 25.2061 113.059 24.77 113.127 23.8961V23.3919ZM113.329 12.4022C113.396 11.6618 113.396 11.192 113.329 10.9902C113.059 11.124 112.757 11.4611 112.421 11.9989C112.556 12.0654 112.858 12.2003 113.329 12.4022ZM115.547 12.7046C115.345 12.0318 114.908 11.5953 114.236 11.3935C114.034 11.9313 114.001 12.3009 114.135 12.5028C114.337 12.637 114.807 12.7046 115.547 12.7046V12.7046ZM137.628 26.2149C137.561 26.1472 137.342 25.9125 136.972 25.5096C136.602 25.1056 136.384 24.8373 136.317 24.7027C135.981 24.7023 135.813 25.0051 135.813 25.6102C135.88 25.6098 136.183 25.7111 136.72 25.9126C137.258 26.1136 137.56 26.2153 137.628 26.2149L137.628 26.2149ZM13.914 32.3657C13.6448 33.4413 13.0065 34.2475 11.9981 34.7853C10.1163 35.6588 7.52844 37.205 4.23461 39.4232C4.57059 38.5493 5.10884 37.81 5.84806 37.205C7.93174 35.7264 10.6205 34.1133 13.914 32.3657ZM11.3934 13.2083C11.3934 13.7461 11.1579 14.3853 10.6874 15.1246L10.486 15.1238C10.6205 14.3853 10.4523 14.0153 9.98176 14.0153C9.44396 14.0145 9.14157 14.9564 9.07432 16.8382C9.07432 17.9807 9.07432 19.1573 9.07432 20.3671L8.87251 20.3663C8.87251 19.762 8.60377 19.0231 8.06637 18.1488C7.52857 17.2746 6.95705 16.8381 6.35194 16.8381C6.35194 17.5778 5.91505 17.9474 5.0412 17.9474C4.16736 17.9466 3.73047 17.4096 3.73047 16.334C3.73047 15.3933 4.26826 14.9227 5.34392 14.9227C6.95705 14.9219 8.0663 15.8298 8.67102 17.6447C8.67102 16.4349 8.67102 15.2583 8.67102 14.1158C8.80558 12.6368 9.3094 11.8976 10.1832 11.8976C10.9901 11.8972 11.3934 12.3349 11.3934 13.2083V13.2083ZM55.5553 19.9635C55.3535 20.8381 54.9165 21.6106 54.2446 22.2827C54.2446 22.2827 54.11 22.2827 53.8413 22.2827C53.6395 22.215 53.404 22.1821 53.1353 22.1821C50.9171 22.1821 48.4974 22.8882 45.8759 24.2994C43.2541 25.7111 41.3723 26.4171 40.2297 26.4171C39.0195 26.4167 37.9442 25.8793 37.0031 24.8036C32.9704 27.8956 27.7947 29.4415 21.4757 29.4415C17.5771 29.4415 14.7205 29.0382 12.9056 28.232C12.7715 28.2316 12.5527 28.534 12.2503 29.1391C11.9479 29.7439 11.6958 30.0466 11.494 30.0466C11.2252 30.0458 10.6875 29.8115 9.88085 29.3409C8.87244 28.87 8.26772 28.6353 8.0663 28.6353C7.39394 30.18 6.38553 31.3237 5.04114 32.063C3.2262 33.0706 1.54582 33.5756 0 33.5756V33.1719C3.96587 31.4246 6.35188 29.6097 7.1588 27.7279C7.1588 24.4337 7.93174 22.7873 9.47755 22.7873C9.41031 22.7865 9.9481 23.1399 11.0907 23.8459C12.2333 24.5516 13.5107 25.1397 14.9224 25.6102C17.0061 26.2826 19.2915 26.6186 21.7785 26.6186C24.5341 26.6186 27.4247 26.249 30.4495 25.5097C34.1466 24.5678 36.7341 23.3247 38.213 21.7789C38.2803 21.7785 38.3812 21.8798 38.5157 22.0813C38.4481 22.2827 38.3812 22.5522 38.3139 22.8882C38.919 23.4926 39.6583 23.7957 40.5321 23.7957C41.6747 23.7953 43.7919 22.9214 46.884 21.1738C44.8003 20.4341 43.3886 20.0649 42.6494 20.0649C42.3806 20.0641 42.2128 20.1658 42.1451 20.3673L39.3223 20.266V20.0642C39.3223 18.1824 40.4312 17.2416 42.6494 17.2416C43.3217 17.2412 44.3634 17.5443 45.775 18.149C47.5223 18.8883 48.5647 19.2916 48.9007 19.3593C50.3124 19.7622 52.5306 19.964 55.5553 19.9636V19.9635ZM39.3223 31.1551C39.3223 31.8271 39.0872 32.6344 38.6162 33.5756C37.9443 33.5756 37.205 33.3737 36.3981 32.9704C36.1966 33.1046 35.8939 33.6092 35.4906 34.483C33.8102 34.0121 32.9704 33.4414 32.9704 32.769C32.9704 32.5668 33.2055 31.9957 33.6757 31.0549C34.4154 31.0545 35.1886 31.2563 35.9948 31.6596C36.1966 31.3233 36.5999 30.7858 37.205 30.0465L39.3223 31.155L39.3223 31.1551ZM26.5172 19.0561C26.8532 19.5262 27.0214 20.0648 27.0214 20.6699C27.0214 22.1485 26.4836 22.8881 25.4083 22.8881C24.2654 22.8877 23.6939 22.2826 23.6939 21.0732C23.6939 20.1982 23.963 19.2582 24.5008 18.2499C24.9713 17.4429 25.4755 16.6367 26.0129 15.8298L26.2147 15.8294C25.4755 18.3833 25.1054 19.6948 25.1054 19.7624C25.1054 20.4341 25.3405 20.7704 25.8114 20.7704C26.4162 20.7701 26.618 20.3003 26.4162 19.3592L26.5171 19.0561H26.5172ZM25.5088 4.43648C25.3074 7.19252 22.921 9.17523 18.35 10.3854L17.9467 10.2842C19.5602 9.67982 21.2069 8.50326 22.8873 6.75556C22.8873 6.15084 22.2826 5.84812 21.0724 5.84812C19.9298 5.84774 18.8542 6.15084 17.8462 6.75556C18.5182 5.14211 19.0893 4.15108 19.5602 3.78144C20.0308 3.41102 20.8373 3.22659 21.9799 3.22659C23.4588 3.22659 24.635 3.62988 25.5088 4.43642V4.43648ZM51.1189 29.6433C50.9843 29.9793 50.5308 30.3826 49.7579 30.8531C48.9846 31.3233 48.2283 31.5591 47.4891 31.5591C46.6825 31.5587 46.2792 31.2231 46.2792 30.5507C46.2792 30.0121 46.6152 29.4081 47.2873 28.7358L48.1947 27.9285C47.926 27.7277 47.6236 27.6265 47.2873 27.6265C46.884 27.6265 46.4811 27.6605 46.0778 27.7278C46.4134 26.8532 47.0522 26.417 47.9933 26.417C48.3966 26.4166 48.8671 26.5852 49.4049 26.9208C49.2704 27.19 49.0013 27.5596 48.598 28.0301C47.7245 29.0378 47.2873 29.6433 47.2873 29.8447C47.2873 30.3152 47.59 30.5507 48.1947 30.5507C48.8671 30.5507 49.8414 30.2483 51.1189 29.6433V29.6433ZM49.8082 4.83972C49.8082 5.57861 49.4049 6.57074 48.5979 7.81423C47.7914 9.05804 46.8506 9.94888 45.775 10.4864C46.9849 8.87251 47.59 7.69666 47.59 6.95744C34.6171 9.64584 23.5934 13.7126 14.5191 19.1574C14.8551 17.8126 15.1911 17.0401 15.5271 16.8382C19.0224 14.4855 24.4332 12.0322 31.7602 9.47794C38.7508 7.12521 44.7666 5.57939 49.8082 4.83972V4.83972ZM93.9701 18.8542C93.2977 19.3248 92.4575 19.8629 91.4491 20.468C89.9033 20.1317 88.7607 19.9638 88.0214 19.9638C85.6687 19.9635 83.7192 20.3671 82.1734 21.1737C82.1734 24.8032 81.5682 26.6184 80.3584 26.6184C79.4173 26.6184 78.3084 26.1815 77.0309 25.3077C76.7622 26.1812 76.3083 26.8705 75.6699 27.3747C75.0312 27.8781 74.2753 28.1306 73.4014 28.1306C73.4014 31.5586 71.4856 34.3487 67.6543 36.4992C64.6964 38.1796 60.7646 39.5244 55.8576 40.5323C51.4212 41.4727 47.1866 41.944 43.1535 41.944C30.2479 41.9436 21.1396 38.3478 15.8298 31.1553L15.9303 30.7517C22.9882 36.1292 32.2642 38.8183 43.7585 38.8183C51.0852 38.8179 57.7061 37.7763 63.6215 35.6926C69.335 33.7424 72.1912 31.6595 72.1912 29.4413C72.1912 28.8358 71.9727 28.2148 71.5358 27.5761C71.0993 26.9377 70.8809 26.5174 70.8809 26.3156C70.8809 25.9792 71.1496 25.2403 71.687 24.0974C72.7627 24.9713 73.4687 25.4082 73.8047 25.4082C75.0817 25.4078 76.0561 24.7698 76.7289 23.4927C77.7369 21.6774 78.241 20.7703 78.241 20.7703C79.7868 19.4259 82.2065 18.5189 85.5003 18.0479C83.3494 17.1741 81.9041 16.7372 81.1648 16.7372C80.9634 16.7372 80.8288 16.8718 80.7615 17.1408L77.5349 17.1404V16.6366C77.5349 14.6199 78.7452 13.6114 81.1648 13.6114C82.1732 13.6111 83.5512 14.1157 85.2985 15.1244C87.9876 16.5353 90.8774 17.7791 93.9699 18.854L93.9701 18.8542ZM61.1006 21.0728C61.1006 22.7528 60.5964 24.2994 59.5885 25.711C58.5798 27.1223 58.0759 27.8956 58.0759 28.0301C58.0759 30.1134 57.5385 32.0629 56.4628 33.8778C55.1853 35.9611 53.5386 37.0035 51.5222 37.0035C49.7072 37.0027 47.9933 36.7348 46.3798 36.197L46.5816 35.8942C47.9932 35.8942 49.3372 35.7264 50.6147 35.39C51.8918 35.0537 53.3201 34.1133 54.8996 32.5671C56.4794 31.0209 57.269 29.7106 57.269 28.6353C57.269 28.0298 56.9669 27.4251 56.3615 26.82C55.7568 26.2149 55.4541 25.9126 55.4541 25.9126C55.4541 25.5758 55.6559 24.77 56.0596 23.4929C56.6643 23.8958 57.3367 24.0976 58.0759 24.0976C59.017 24.0968 59.6554 23.728 59.9914 22.9887C59.79 21.3075 59.2858 18.6868 58.4792 15.1246C57.74 12.0318 57.3027 10.3522 57.1685 10.0827C56.4292 8.3351 56.0596 7.25983 56.0596 6.85653C56.0596 6.31906 56.3283 5.51253 56.8661 4.43687C57.4708 5.10852 58.3447 6.21777 59.4872 7.76397C59.4203 7.96507 59.2858 8.30177 59.0839 8.77238C58.8825 9.24254 58.7815 9.57891 58.7815 9.78079C58.7815 9.71276 59.1681 11.3603 59.9411 14.721C60.7143 18.0822 61.1006 20.1991 61.1006 21.0729V21.0728ZM64.932 29.2396L63.0161 31.155L61.1006 29.1383L62.9156 27.2228L64.932 29.2396ZM54.547 12.4021C54.547 14.1487 54.0428 15.0232 53.0344 15.0232C52.4966 15.0224 52.0597 14.889 51.7237 14.6203C51.1862 15.4261 50.7489 15.8298 50.4129 15.8298C49.4722 15.8294 49.0013 15.2583 49.0013 14.1157C49.0013 13.7124 49.0689 13.3096 49.2031 12.9063L49.6064 12.7045C49.6064 13.5106 49.9428 13.9143 50.6148 13.9143C51.2195 13.9139 51.5223 13.3096 51.5223 12.0994L52.0265 11.5951C52.0265 12.4686 52.3289 12.9063 52.9339 12.9063C53.4041 12.9059 53.7068 12.3008 53.8413 11.0913L54.3452 10.6877C54.4797 11.2252 54.547 11.797 54.547 12.4021V12.4021ZM84.3913 30.2483C84.1898 31.3232 83.5515 32.1305 82.4758 32.668C80.6609 33.6091 78.0731 35.1549 74.7123 37.3062C75.0483 36.4313 75.5861 35.6928 76.3254 35.088C78.4094 33.6091 81.0978 31.9956 84.3913 30.2483H84.3913ZM66.5451 22.7864C66.5451 23.9297 66.31 25.2745 65.8395 26.8199L61.6049 7.56249C61.6049 6.0832 61.8736 5.04153 62.4114 4.43681C62.6128 4.7724 63.3521 7.79756 64.6296 13.5111C65.9066 19.2242 66.545 22.3166 66.545 22.7864H66.5451ZM75.1155 19.056C75.1155 20.4677 74.981 21.6446 74.7122 22.5853L74.5108 22.5849C74.5108 19.4925 73.872 17.3087 72.5946 16.0316V13.4102C74.2753 15.1575 75.1155 17.04 75.1155 19.056V19.056ZM91.5501 28.9365C91.4159 29.2725 90.9623 29.6769 90.1891 30.1474C89.4158 30.6172 88.6595 30.853 87.9202 30.853C87.0468 30.8527 86.6095 30.5171 86.6095 29.8446C86.6095 29.3072 86.9795 28.702 87.7188 28.0301L88.6263 27.2228C88.3575 27.021 88.0548 26.9208 87.7188 26.9208C87.2483 26.9204 86.8446 26.9544 86.509 27.0217C86.8446 26.1471 87.4837 25.7109 88.4245 25.7109C88.8278 25.7109 89.265 25.8792 89.7352 26.2151C89.6683 26.4166 89.3992 26.7866 88.929 27.3244C88.1221 28.3321 87.7188 28.9372 87.7188 29.139C87.7188 29.6092 87.988 29.8446 88.5254 29.8446C89.265 29.8439 90.273 29.5426 91.5501 28.9364L91.5501 28.9365ZM69.8726 6.35194C70.2086 6.88974 70.3764 7.46158 70.3764 8.06637C70.3764 9.47801 69.8389 10.184 68.7633 10.184C67.6207 10.1836 67.0492 9.57892 67.0492 8.36908C67.0492 7.49485 67.3017 6.6044 67.8055 5.69735C68.3097 4.78952 68.8309 3.93267 69.3683 3.12613H69.5701C68.8308 5.67997 68.4608 6.9911 68.4608 7.05835C68.4608 7.73032 68.6959 8.06637 69.1668 8.06637C69.7715 8.06559 69.9734 7.59582 69.7715 6.65511L69.8724 6.35201L69.8726 6.35194ZM104.456 33.4742C104.859 34.012 105.061 34.5838 105.061 35.1886C105.061 36.6668 104.523 37.4068 103.448 37.4068C102.238 37.4064 101.633 36.7684 101.633 35.4913C101.633 34.6164 101.902 33.7433 102.439 32.8699C102.977 31.9953 103.481 31.1222 103.952 30.2484L104.153 30.3489C103.414 32.9027 103.044 34.2139 103.044 34.2811C103.044 34.9531 103.279 35.2895 103.75 35.2895C104.355 35.2891 104.556 34.7853 104.355 33.7774L104.456 33.4743L104.456 33.4742ZM90.7435 3.73047C90.7435 4.47014 90.3402 5.46188 89.5337 6.70531C88.7272 7.94879 87.8197 8.87322 86.8113 9.47794C87.9539 7.79718 88.5254 6.58734 88.5254 5.84806C81.6689 7.25931 74.6114 10.0494 67.3521 14.2171C67.6881 12.9392 68.024 12.1671 68.3601 11.8976C74.4096 7.79718 81.8708 5.07518 90.7436 3.7304L90.7435 3.73047ZM99.9187 21.0728C99.9187 22.7528 99.4316 24.2994 98.4568 25.7111C97.482 27.1223 96.9945 27.8956 96.9945 28.0302C96.9945 30.18 96.457 32.1975 95.3818 34.0797C94.1715 36.2972 92.5921 37.4068 90.6426 37.4068C89.5 37.4064 87.7188 37.0035 85.2988 36.197L85.4001 35.8942C86.879 35.8942 88.2903 35.6928 89.6347 35.2895C90.7773 35.0201 92.1383 34.1133 93.718 32.5671C95.2975 31.0209 96.0875 29.7106 96.0875 28.6353C96.0875 28.0298 95.7851 27.4251 95.18 26.82C94.5749 26.2149 94.2726 25.9126 94.2726 25.9126C94.2726 25.5758 94.5077 24.77 94.9782 23.4929C95.516 23.8958 96.1548 24.0976 96.8941 24.0976C97.9021 24.0968 98.5408 23.728 98.8095 22.9887C98.6081 21.3075 98.1039 18.6868 97.2974 15.1246C96.625 12.0318 96.2217 10.3522 96.0875 10.0827C95.281 8.3351 94.8777 7.25983 94.8777 6.85653C94.8777 6.31906 95.1464 5.51253 95.6838 4.43687C96.2893 5.10852 97.1291 6.21777 98.2048 7.76397C98.2048 7.96507 98.1209 8.30177 97.9527 8.77238C97.7849 9.24254 97.7006 9.57891 97.7006 9.78079C97.7006 9.71276 98.0703 11.3603 98.8096 14.721C99.5489 18.0822 99.9189 20.1991 99.9189 21.0729L99.9187 21.0728ZM117.462 31.2564C117.261 32.3321 116.622 33.1386 115.547 33.6765C113.732 34.5495 111.144 36.0961 107.783 38.3143C108.119 37.4401 108.657 36.7012 109.397 36.0961C111.48 34.6164 114.169 33.0041 117.462 31.2564ZM94.3734 11.3935C94.3734 13.2084 93.8692 14.1158 92.8608 14.1158C92.3233 14.1151 91.9201 13.9476 91.651 13.6116C91.0459 14.4182 90.5757 14.8219 90.2393 14.8219C89.3655 14.8215 88.929 14.2841 88.929 13.2084C88.929 12.7383 88.9959 12.335 89.1304 11.999L89.4328 11.7968C89.4328 12.5364 89.7688 12.9064 90.4412 12.9064C91.1132 12.906 91.4492 12.335 91.4492 11.192L91.9534 10.5873C91.9534 11.5276 92.2226 11.9989 92.76 11.9989C93.2978 11.9985 93.6338 11.3934 93.7684 10.184L94.1717 9.77995C94.3062 10.2505 94.3735 10.7887 94.3735 11.3934L94.3734 11.3935ZM105.363 22.7865C105.363 23.9298 105.162 25.2746 104.758 26.82L100.423 7.56255C100.423 6.08327 100.726 5.04159 101.33 4.43687C101.532 4.77247 102.255 7.79763 103.498 13.5111C104.741 19.2242 105.363 22.3166 105.363 22.7865H105.363ZM126.839 24.0968C126.839 27.3242 125.831 28.9373 123.815 28.9373C122.269 28.9365 121.193 28.2653 120.588 26.9209C120.118 29.1384 118.874 30.2484 116.857 30.2484C115.782 30.2484 114.942 29.8115 114.337 28.9373C113.732 28.0638 113.429 27.089 113.429 26.0138C112.287 27.9625 111.144 28.9373 110.001 28.9373C108.657 28.9365 107.985 28.0975 107.985 26.4171C107.985 25.2061 108.842 24.1146 110.556 23.1398C112.27 22.1647 113.127 21.6106 113.127 21.4765C113.262 20.871 113.329 20.3339 113.329 19.863L114.236 18.5523C114.438 19.0901 114.538 19.7288 114.538 20.4681C114.538 20.871 114.488 21.4595 114.388 22.2324C114.287 23.005 114.236 23.5938 114.236 23.9971C114.236 25.9458 115.211 26.921 117.16 26.921C119.042 26.9206 119.983 26.0138 119.983 24.199C119.983 23.5939 119.832 22.6358 119.529 21.325C119.227 20.0139 119.076 19.0565 119.076 18.4518C119.076 17.7791 119.378 16.8384 119.983 15.6285C120.454 17.578 120.924 19.5271 121.395 21.4766C122.067 24.097 123.041 25.4084 124.319 25.4084C125.125 25.408 125.529 25.1064 125.529 24.501C125.529 23.4249 125.125 21.8462 124.319 19.7626C123.512 17.6785 123.109 16.536 123.109 16.3342C123.109 15.9301 123.243 15.3934 123.512 14.721C123.781 14.0487 123.915 13.5448 123.915 13.2085C125.865 17.5103 126.839 21.1402 126.839 24.0969L126.839 24.0968ZM116.152 12.5027C115.883 13.7791 115.076 14.2503 113.732 13.9144C113.194 15.1238 112.102 16.1155 110.455 16.8889C108.808 17.661 107.178 18.0481 105.565 18.0481L105.363 17.8462C105.901 17.8462 107.111 17.3761 108.993 16.4353C111.144 15.4262 112.488 14.5531 113.026 13.8135C112.22 13.4775 111.816 13.0402 111.816 12.5027C111.816 12.1667 111.9 11.7801 112.068 11.3431C112.237 10.9066 112.287 10.6205 112.219 10.4864C112.085 10.4183 112.018 10.2845 112.018 10.0827C112.018 9.67982 112.455 9.47801 113.329 9.47801C113.866 9.47801 114.505 9.83098 115.244 10.5367C115.984 11.2427 116.286 11.8977 116.152 12.5028L116.152 12.5027ZM140.35 31.6593C140.148 32.7345 139.51 33.5082 138.434 33.9787C136.619 34.9194 134.032 36.4656 130.671 38.6169C131.074 37.81 131.612 37.0707 132.284 36.3988C134.368 34.9195 137.056 33.34 140.35 31.6593H140.35ZM109.296 5.34392C109.699 5.88172 109.9 6.45324 109.9 7.05835C109.9 8.53652 109.363 9.27652 108.287 9.27652C107.144 9.27613 106.573 8.63775 106.573 7.36067C106.573 6.48683 106.825 5.59638 107.329 4.68894C107.833 3.78072 108.355 2.92426 108.892 2.11772L108.993 2.21863C108.321 4.77247 107.985 6.08359 107.985 6.15084C107.985 6.82281 108.186 7.15886 108.59 7.15886C109.262 7.15886 109.497 6.65505 109.296 5.6467V5.34399L109.296 5.34392ZM123.311 10.788C123.311 12.6033 122.773 13.5111 121.697 13.5111C121.227 13.5107 120.823 13.3429 120.487 13.0069C119.882 13.8127 119.446 14.2171 119.177 14.2171C118.235 14.2171 117.765 13.6793 117.765 12.6037C117.765 12.1328 117.832 11.7298 117.967 11.3935L118.37 11.1917C118.37 11.9313 118.706 12.301 119.378 12.301C119.983 12.3002 120.286 11.7299 120.286 10.5873L120.79 9.98182C120.79 10.9233 121.092 11.3935 121.697 11.3935C122.168 11.3935 122.47 10.7887 122.605 9.57891L123.008 9.07432C123.209 9.61212 123.311 10.184 123.311 10.788V10.788ZM131.276 22.7865C131.276 23.9298 131.074 25.2746 130.671 26.82L126.335 7.56255C126.335 6.08327 126.638 5.04159 127.242 4.43687C127.444 4.77247 128.167 7.79763 129.41 13.5111C130.654 19.2242 131.275 22.3166 131.275 22.7865H131.276ZM120.991 5.64631C120.991 7.12527 120.823 8.30183 120.487 9.17523L120.386 9.17484C120.386 6.0832 119.714 3.89901 118.37 2.62186L118.471 0C120.151 1.74763 120.991 3.62988 120.991 5.64625V5.64631ZM139.342 10.8893C139.342 11.3598 139.106 11.9653 138.636 12.7046H138.434C138.569 12.0318 138.401 11.6962 137.93 11.6962C137.392 11.6958 137.124 12.6036 137.124 14.4186C137.056 15.628 137.023 16.805 137.023 17.9475L136.821 17.9467C136.821 17.4092 136.569 16.704 136.065 15.8298C135.561 14.956 134.973 14.5191 134.3 14.5191C134.3 15.1914 133.863 15.5278 132.99 15.5278C132.183 15.5274 131.78 15.0232 131.78 14.0153C131.78 13.0742 132.318 12.6036 133.393 12.6036C134.939 12.6032 136.015 13.4779 136.619 15.2251C136.619 14.0822 136.619 12.9396 136.619 11.7971C136.754 10.3178 137.258 9.57891 138.132 9.57891C138.938 9.57853 139.342 10.0158 139.342 10.8893V10.8893ZM274.798 23.9373C273.926 24.4426 272.97 23.5265 272.432 22.9886C272.096 23.5261 271.793 24.0643 271.525 24.6021C270.852 25.4751 270.079 25.9124 269.205 25.9124C268.466 25.9116 267.76 25.6777 267.088 25.2068C266.08 26.2825 264.87 26.8199 263.459 26.8199C262.249 26.8191 260.87 26.2489 259.325 25.1063C252.401 27.3241 243.361 29.2063 232.203 30.7521C219.498 32.4998 206.66 33.3736 193.687 33.3736C171.169 33.3728 153.289 31.7605 140.048 28.5339C139.913 28.5339 139.695 28.7864 139.392 29.2902C139.09 29.794 138.838 30.0464 138.636 30.0464C138.367 30.0457 137.779 29.8114 136.872 29.3408C135.964 28.8699 135.41 28.6352 135.208 28.6352C134.536 30.1799 133.494 31.3236 132.082 32.0629C130.335 33.0705 128.688 33.5754 127.142 33.5754V33.1718C131.107 31.4245 133.494 29.6096 134.3 27.7278C134.3 24.4335 135.04 22.7871 136.518 22.7871C136.922 22.7864 137.544 23.1734 138.384 23.9463C139.224 24.7193 139.947 25.2068 140.552 25.4082C152.718 28.2984 171.169 29.7441 195.905 29.7441C221.515 29.7437 243.898 26.9208 263.055 21.2746V21.8789C262.921 22.0807 262.618 22.4508 262.148 22.9886C262.685 23.526 263.391 23.7955 264.265 23.7955C265.408 23.7951 266.987 22.7871 269.004 20.7703C269.071 21.0054 269.138 21.2412 269.205 21.4763C269.205 21.5429 269.037 21.9129 268.701 22.5853C269.037 22.9208 269.441 23.0895 269.911 23.0895C271.39 23.0887 271.615 21.8796 272.287 19.4596C272.509 19.3485 272.647 19.3107 272.915 19.2714C273.006 19.8126 273.074 20.4854 273.023 20.9083C274.568 20.7711 276.238 19.8066 277.279 18.7838C276.342 17.1564 274.309 15.2197 272.648 13.2362C271.033 11.3064 271.742 9.8732 272.318 7.71358C273.137 7.87273 277.448 14.4026 279.082 19.2075C278.663 20.3365 278.244 21.4654 277.826 22.5939C276.816 23.2935 275.807 23.7418 274.798 23.9372L274.798 23.9373ZM261.139 29.0378C260.736 31.1222 260.098 32.1638 259.223 32.1638C258.887 32.1631 258.451 32.0297 257.913 31.7605C257.039 32.4998 256.434 32.8699 256.098 32.8699C255.964 32.8695 255.728 32.752 255.392 32.5169C255.056 32.2818 254.787 32.1639 254.586 32.1639C253.846 32.1631 252.199 32.9032 249.645 34.3821C246.822 35.9948 244.503 37.0036 242.689 37.4069L242.588 37.1041C244.335 36.6332 246.721 35.3901 249.746 33.3737C252.301 31.6261 254.149 30.7523 255.292 30.7523C255.493 30.7519 255.745 30.8532 256.048 31.055C256.35 31.2564 256.602 31.3574 256.804 31.3574C256.871 31.357 257.409 30.9877 258.417 30.2484C258.484 30.2484 258.636 30.3157 258.871 30.4503C259.106 30.5837 259.325 30.6517 259.526 30.6517C259.795 30.6513 259.98 30.4332 260.081 29.9963C260.182 29.559 260.534 29.24 261.139 29.0378V29.0378ZM272.533 28.9365C272.331 30.0121 271.693 30.7858 270.617 31.2563C268.802 32.1967 266.214 33.7433 262.853 35.8946C263.19 35.0873 263.727 34.3488 264.467 33.6764C266.55 32.1967 269.239 30.618 272.533 28.9365V28.9365ZM278.078 27.3241L276.163 29.2396L274.146 27.2228L276.062 25.3074L278.078 27.3241ZM266.483 10.2842C266.281 13.0398 263.862 15.0233 259.224 16.2335L258.921 16.1318C260.534 15.5275 262.181 14.3513 263.862 12.6036C263.862 11.9985 263.223 11.6962 261.946 11.6962C260.87 11.6958 259.829 11.9653 258.82 12.5027C259.493 10.9561 260.064 9.99914 260.534 9.62917C261.005 9.25875 261.812 9.07471 262.954 9.07471C264.366 9.07432 265.542 9.47801 266.483 10.2842H266.483Z" fill="#8C6A4F"/>
</g>
<defs>
<clipPath id="clip0_1874_2670">
<rect width="279.082" height="41.9441" fill="white"/>
</clipPath>
</defs>
</svg>
